<mxfile host="app.diagrams.net" modified="2021-10-06T12:15:33.494Z" agent="5.0 (Windows NT 10.0; Win64; x64) AppleWebKit/537.36 (KHTML, like Gecko) Chrome/94.0.4606.61 Safari/537.36" etag="hkWLSMfOvcbjIxFDbYul" version="14.8.4" type="github">
  <diagram id="T4DphFfHJ2sR8H128VrD" name="第 1 页">
    <mxGraphModel dx="2000" dy="1162" grid="1" gridSize="10" guides="1" tooltips="1" connect="1" arrows="1" fold="1" page="1" pageScale="1" pageWidth="827" pageHeight="1169" math="0" shadow="0">
      <root>
        <mxCell id="0" />
        <mxCell id="1" parent="0" />
        <mxCell id="B_6vYXjyrChLLCs1VGvm-1" value="" style="rounded=0;whiteSpace=wrap;html=1;fillColor=#f8cecc;strokeColor=#b85450;" vertex="1" parent="1">
          <mxGeometry x="110" y="270" width="630" height="570" as="geometry" />
        </mxCell>
        <mxCell id="B_6vYXjyrChLLCs1VGvm-2" value="" style="rounded=0;whiteSpace=wrap;html=1;fillColor=#fff2cc;strokeColor=#d6b656;" vertex="1" parent="1">
          <mxGeometry x="140" y="300" width="360" height="510" as="geometry" />
        </mxCell>
        <mxCell id="B_6vYXjyrChLLCs1VGvm-3" value="" style="rounded=0;whiteSpace=wrap;html=1;fillColor=#d5e8d4;strokeColor=#82b366;" vertex="1" parent="1">
          <mxGeometry x="560" y="300" width="150" height="510" as="geometry" />
        </mxCell>
        <mxCell id="B_6vYXjyrChLLCs1VGvm-4" value="&lt;font style=&quot;font-size: 18px&quot;&gt;线程A&lt;/font&gt;" style="text;html=1;strokeColor=none;fillColor=none;align=center;verticalAlign=middle;whiteSpace=wrap;rounded=0;" vertex="1" parent="1">
          <mxGeometry x="230" y="310" width="70" height="20" as="geometry" />
        </mxCell>
        <mxCell id="B_6vYXjyrChLLCs1VGvm-5" value="&lt;font style=&quot;font-size: 18px&quot;&gt;线程B&lt;/font&gt;" style="text;html=1;strokeColor=none;fillColor=none;align=center;verticalAlign=middle;whiteSpace=wrap;rounded=0;" vertex="1" parent="1">
          <mxGeometry x="600" y="310" width="70" height="20" as="geometry" />
        </mxCell>
        <mxCell id="B_6vYXjyrChLLCs1VGvm-6" value="Loope.loop()" style="rounded=0;whiteSpace=wrap;html=1;fillColor=#e1d5e7;strokeColor=#9673a6;" vertex="1" parent="1">
          <mxGeometry x="160" y="390" width="130" height="390" as="geometry" />
        </mxCell>
        <mxCell id="B_6vYXjyrChLLCs1VGvm-7" value="MessageQueue" style="rounded=0;whiteSpace=wrap;html=1;fillColor=#e1d5e7;strokeColor=#9673a6;" vertex="1" parent="1">
          <mxGeometry x="360" y="470" width="108" height="230" as="geometry" />
        </mxCell>
        <mxCell id="B_6vYXjyrChLLCs1VGvm-8" value="" style="endArrow=classic;html=1;" edge="1" parent="1">
          <mxGeometry width="50" height="50" relative="1" as="geometry">
            <mxPoint x="232" y="388" as="sourcePoint" />
            <mxPoint x="420" y="470" as="targetPoint" />
            <Array as="points">
              <mxPoint x="232" y="350" />
              <mxPoint x="320" y="350" />
              <mxPoint x="420" y="350" />
              <mxPoint x="420" y="388" />
            </Array>
          </mxGeometry>
        </mxCell>
        <mxCell id="B_6vYXjyrChLLCs1VGvm-12" style="edgeStyle=orthogonalEdgeStyle;rounded=0;orthogonalLoop=1;jettySize=auto;html=1;exitX=0;exitY=0.25;exitDx=0;exitDy=0;" edge="1" parent="1" source="B_6vYXjyrChLLCs1VGvm-11">
          <mxGeometry relative="1" as="geometry">
            <mxPoint x="473" y="550" as="targetPoint" />
            <Array as="points">
              <mxPoint x="573" y="550" />
            </Array>
          </mxGeometry>
        </mxCell>
        <mxCell id="B_6vYXjyrChLLCs1VGvm-13" value="Mesage" style="edgeLabel;html=1;align=center;verticalAlign=middle;resizable=0;points=[];" vertex="1" connectable="0" parent="B_6vYXjyrChLLCs1VGvm-12">
          <mxGeometry x="-0.1961" y="-2" relative="1" as="geometry">
            <mxPoint as="offset" />
          </mxGeometry>
        </mxCell>
        <mxCell id="B_6vYXjyrChLLCs1VGvm-11" value="Handler" style="rounded=1;whiteSpace=wrap;html=1;fillColor=#e1d5e7;strokeColor=#9673a6;" vertex="1" parent="1">
          <mxGeometry x="572.5" y="500" width="125" height="240" as="geometry" />
        </mxCell>
        <mxCell id="B_6vYXjyrChLLCs1VGvm-14" value="" style="endArrow=classic;html=1;exitX=1;exitY=0.75;exitDx=0;exitDy=0;entryX=0;entryY=0.75;entryDx=0;entryDy=0;" edge="1" parent="1">
          <mxGeometry width="50" height="50" relative="1" as="geometry">
            <mxPoint x="290" y="715.5" as="sourcePoint" />
            <mxPoint x="572.5" y="713" as="targetPoint" />
          </mxGeometry>
        </mxCell>
        <mxCell id="B_6vYXjyrChLLCs1VGvm-15" value="dispatchMessage" style="edgeLabel;html=1;align=center;verticalAlign=middle;resizable=0;points=[];" vertex="1" connectable="0" parent="B_6vYXjyrChLLCs1VGvm-14">
          <mxGeometry x="-0.207" y="2" relative="1" as="geometry">
            <mxPoint as="offset" />
          </mxGeometry>
        </mxCell>
      </root>
    </mxGraphModel>
  </diagram>
</mxfile>
